- 
http://www.Speed.Cd      fast  and The Hottest Private Tracker on the net

Please Seed back to make the speed Faster!!!

------------------nfo--------------------------
-[IMG]http://img338.imageshack.us/img338/6176/wrongturn4bloodybeginniq.jpg[/IMG]


[color=blue][size=5][b]Wrong.Turn.4.2011.Unrated.BDRip.XVID.AC3.HQ.Hive-CM8[/b][/size][/color]


[b]Thx Hive

CM8 Doing It Right The First Time :D


Source: Bluray

Video: 720x400 @bitrate 1800 2pass
Audio: English DTS to AC3 5.1 @448
Sample: Yes, included[/b]
 
http://www.imdb.com/title/tt1865567/


General
Complete name                  : Wrong.Turn.4.2011.Unrated.BDRip.XVID.AC3.HQ.Hive-CM8.avi
Format                         : AVI
Format/Info                    : Audio Video Interleave
File size                      : 1.47 GiB
Duration                       : 1h 33mn
Overall bit rate               : 2 257 Kbps
Writing application            : Nandub v1.0rc2
Writing library                : Nandub build 1853/release

Video
ID                             : 0
Format                         : MPEG-4 Visual
Format profile                 : Advanced Simple@L5
Format settings, BVOP          : 2
Format settings, QPel          : Yes
Format settings, GMC           : No warppoints
Format settings, Matrix        : Default (H.263)
Muxing mode                    : Packed bitstream
Codec ID                       : XVID
Codec ID/Hint                  : XviD
Duration                       : 1h 33mn
Bit rate                       : 1 800 Kbps
Width                          : 720 pixels
Height                         : 400 pixels
Display aspect ratio           : 16:9
Frame rate                     : 23.976 fps
Color space                    : YUV
Chroma subsampling             : 4:2:0
Bit depth                      : 8 bits
Scan type                      : Progressive
Compression mode               : Lossy
Bits/(Pixel*Frame)             : 0.261
Stream size                    : 1.17 GiB (80%)
Writing library                : XviD 1.2.1 (UTC 2008-12-04)

Audio
ID                             : 1
Format                         : AC-3
Format/Info                    : Audio Coding 3
Mode extension                 : CM (complete main)
Codec ID                       : 2000
Duration                       : 1h 33mn
Bit rate mode                  : Constant
Bit rate                       : 448 Kbps
Channel(s)                     : 6 channels
Channel positions              : Front: L C R, Side: L R, LFE
Sampling rate                  : 48.0 KHz
Bit depth                      : 16 bits
Compression mode               : Lossy
Stream size                    : 299 MiB (20%)
Alignment                      : Split accross interleaves
Interleave, duration           : 42 ms (1.00 video frame)
Interleave, preload duration   : 500 ms


Plot:
Follows a group of friends that decide to go snowmobiling during their winter break.
They make a "wrong turn", getting lost in a storm.


Cast:
Dean Armstrong   ...     Daniel
Blane Cypurda    ...     Young Three Finger
Tenika Davis     ...     Sara
Kristen Harris   ...     Dr. Annmarie McQuaid


[img]http://img411.imageshack.us/img411/6449/48843758.png[/img]
[img]http://img717.imageshack.us/img717/8360/wrwrf.png[/img]
[img]http://img571.imageshack.us/img571/8966/wrwrwr.png[/img]
[img]http://img210.imageshack.us/img210/6109/wrwrwrwwrrwr.png[/img]
[img]http://img64.imageshack.us/img64/469/wrwrwwrrwr.png[/img]
[img]http://img710.imageshack.us/img710/6279/wrwwrrwr.png[/img]



Greetz

ViSiON,SiC,SANTi,3LT0N,YanKeeS,MAGNET,THC,T0XiC,LKRG,FANTASIA-PLAY,FANTASIA-M,FLAWL3SS,
D2U,WBZ,BHRG,NOVA,Vik,Rapeseed,SAFC,goldadvance,MEMORY100,KaN1vE,Unevano,Pinnz,Wayne
Mr Hive,cedrict wink,and all P2P groups
Great Work Guys :D

LOOKING FOR ANYTHING YOU WANT TO LOOK AND SOUND BETTER

CM8@hushmail.com